<?xml version="1.0" encoding="UTF-8" standalone="no"?>
<svg
   width="44.20269"
   height="44.690762"
   viewBox="5.591 3.262 8.3949926 8.4828113"
   version="1.1"
   id="svg6"
   xmlns="http://www.w3.org/2000/svg"
   xmlns:svg="http://www.w3.org/2000/svg">
  <defs
     id="defs6" />
  <linearGradient
     id="a"
     gradientUnits="userSpaceOnUse"
     x1="-2031.312"
     y1="275.86801"
     x2="-1922.296"
     y2="182.075"
     gradientTransform="matrix(0.0424805,0,0,-0.04289586,91.682437,15.334038)">
    <stop
       offset="0"
       stop-color="#5a9fd4"
       id="stop1" />
    <stop
       offset="1"
       stop-color="#306998"
       id="stop2" />
  </linearGradient>
  <path
     d="M 9.7385011,3.2594552 C 9.392313,3.26102 9.0617584,3.290571 8.770927,3.3420751 7.9140675,3.4934948 7.7584943,3.8103043 7.7584943,4.3946849 V 5.1664332 H 9.7833611 V 5.4236577 H 6.9985277 c -0.5884591,0 -1.1038134,0.3537399 -1.2649747,1.0266308 -0.1859329,0.7712945 -0.194164,1.2525894 0,2.057944 C 5.877496,9.107717 6.2212671,9.534864 6.8097253,9.534864 h 0.696227 V 8.6097327 c 0,-0.6683594 0.5782637,-1.257876 1.2649747,-1.257876 h 2.022525 c 0.563009,0 1.012433,-0.4635471 1.012433,-1.0289716 V 4.39461 c 0,-0.548735 -0.462943,-0.9610036 -1.012433,-1.0526107 -0.347925,-0.05785 -0.708763,-0.084205 -1.0549509,-0.082544 z M 8.6434478,3.8800859 c 0.2091932,0 0.3799462,0.1736225 0.3799462,0.3870449 0,0.2126663 -0.1708288,0.3847033 -0.3799462,0.3847033 -0.2098718,0 -0.3799454,-0.1719612 -0.3799454,-0.3847033 0,-0.2134224 0.1700736,-0.3870449 0.3799454,-0.3870449 z"
     fill="url(#a)"
     id="path2"
     style="fill:url(#a);stroke-width:0.0755209" />
  <linearGradient
     id="b"
     gradientUnits="userSpaceOnUse"
     x1="-1880.151"
     y1="125.305"
     x2="-1919.08"
     y2="180.384"
     gradientTransform="matrix(0.0424805,0,0,-0.04289586,91.682437,15.334038)">
    <stop
       offset="0"
       stop-color="#ffd43b"
       id="stop3" />
    <stop
       offset="1"
       stop-color="#ffe873"
       id="stop4" />
  </linearGradient>
  <path
     d="m 12.058427,5.4235819 v 0.8991517 c 0,0.6971337 -0.591027,1.283855 -1.264975,1.283855 H 8.770927 c -0.5540209,0 -1.0124327,0.4741205 -1.0124327,1.0289724 v 1.928124 c 0,0.54881 0.4771414,0.871587 1.0124327,1.028972 0.640946,0.1885 1.25561,0.22256 2.022525,0 0.509766,-0.147568 1.012433,-0.444667 1.012433,-1.028972 V 9.7920132 H 9.7833611 V 9.534789 h 3.0349569 c 0.588534,0 0.807772,-0.410532 1.012433,-1.0266314 0.211459,-0.6342244 0.202471,-1.2442825 0,-2.0579448 C 13.685298,5.8643974 13.407532,5.4235819 12.818318,5.4235819 Z m -1.137571,4.8828791 c 0.209873,0 0.379945,0.171961 0.379945,0.384704 0,0.213421 -0.170072,0.387044 -0.379945,0.387044 -0.209193,0 -0.379945,-0.173623 -0.379945,-0.387044 0,-0.212668 0.170828,-0.384704 0.379945,-0.384704 z"
     fill="url(#b)"
     id="path4"
     style="fill:url(#b);stroke-width:0.0755209" />
  <radialGradient
     id="c"
     cx="-3393.238"
     cy="376.79099"
     r="29.037001"
     gradientTransform="matrix(0,-0.2399,-1.0547,0,458.797,-680.1)"
     gradientUnits="userSpaceOnUse">
    <stop
       offset="0"
       stop-color="#b8b8b8"
       stop-opacity=".498"
       id="stop5" />
    <stop
       offset="1"
       stop-color="#7f7f7f"
       stop-opacity="0"
       id="stop6" />
  </radialGradient>
</svg>
